<svg width="24" height="24" viewBox="0 0 24 24" fill="none" xmlns="http://www.w3.org/2000/svg">
<path d="M6.81891 20.0477L7.19717 20.2368C8.77324 21.1825 10.5384 21.6238 12.3036 21.6238C17.8514 21.6238 22.3905 17.0847 22.3905 11.5369C22.3905 8.88913 21.3188 6.30437 19.4275 4.41309C17.5362 2.5218 15.0145 1.45007 12.3036 1.45007C6.75587 1.45007 2.21678 5.98916 2.27982 11.6C2.27982 13.4913 2.84721 15.3195 3.79285 16.8956L4.04502 17.2738L3.03634 20.9934L6.81891 20.0477Z" fill="#25D366"/>
<path d="M20.5002 3.40431C18.3567 1.19781 15.3937 0 12.3676 0C5.93727 0 0.767755 5.23256 0.830798 11.5999C0.830798 13.6173 1.39818 15.5716 2.34383 17.3368L0.704712 23.3259L6.81987 21.7498C8.52202 22.6954 10.4133 23.1367 12.3046 23.1367C18.6719 23.1367 23.8414 17.9042 23.8414 11.5368C23.8414 8.44774 22.6436 5.54777 20.5002 3.40431ZM12.3676 21.1824C10.6655 21.1824 8.96332 20.7411 7.51334 19.8585L7.13508 19.6694L3.4786 20.615L4.42424 17.0216L4.17207 16.6433C1.39818 12.1673 2.72208 6.24124 7.26117 3.46736C11.8003 0.693471 17.6632 2.01737 20.4371 6.55646C23.211 11.0955 21.8871 16.9585 17.348 19.7324C15.898 20.6781 14.1328 21.1824 12.3676 21.1824ZM17.9154 14.1846L17.2219 13.8694C17.2219 13.8694 16.2133 13.4281 15.5828 13.1129C15.5198 13.1129 15.4567 13.0499 15.3937 13.0499C15.2046 13.0499 15.0785 13.1129 14.9524 13.176C14.9524 13.176 14.8894 13.239 14.0068 14.2477C13.9437 14.3738 13.8176 14.4368 13.6915 14.4368H13.6285C13.5655 14.4368 13.4394 14.3738 13.3763 14.3107L13.0611 14.1846C12.3676 13.8694 11.7372 13.4912 11.2329 12.9868C11.1068 12.8607 10.9177 12.7347 10.7916 12.6086C10.3503 12.1673 9.90897 11.6629 9.59375 11.0955L9.53071 10.9695C9.46767 10.9064 9.46767 10.8434 9.40462 10.7173C9.40462 10.5912 9.40462 10.4651 9.46767 10.4021C9.46767 10.4021 9.71984 10.0869 9.90897 9.89773C10.0351 9.77164 10.0981 9.58251 10.2242 9.45643C10.3503 9.2673 10.4133 9.01513 10.3503 8.826C10.2872 8.51079 9.53071 6.80863 9.34158 6.43037C9.2155 6.24124 9.08941 6.1782 8.90028 6.11516H8.20681C8.08072 6.11516 7.95464 6.1782 7.82855 6.1782L7.76551 6.24124C7.63942 6.30428 7.51334 6.43037 7.38725 6.49341C7.26117 6.6195 7.19812 6.74558 7.07204 6.87167C6.63074 7.43906 6.37857 8.13253 6.37857 8.826C6.37857 9.33034 6.50465 9.83468 6.69378 10.276L6.75682 10.4651C7.32421 11.6629 8.08072 12.7347 9.08941 13.6803L9.34158 13.9325C9.53071 14.1216 9.71984 14.2477 9.84592 14.4368C11.1698 15.5716 12.6829 16.3911 14.385 16.8324C14.5741 16.8955 14.8263 16.8955 15.0154 16.9585H15.6459C15.9611 16.9585 16.3393 16.8324 16.5915 16.7064C16.7806 16.5803 16.9067 16.5803 17.0328 16.4542L17.1589 16.3281C17.285 16.202 17.4111 16.139 17.5372 16.0129C17.6632 15.8868 17.7893 15.7607 17.8524 15.6346C17.9785 15.3825 18.0415 15.0672 18.1045 14.752V14.3107C18.1045 14.3107 18.0415 14.2477 17.9154 14.1846Z" fill="white"/>
</svg>
